<?xml version="1.0" encoding="UTF-8" standalone="no"?>
<svg
   xmlns:dc="http://purl.org/dc/elements/1.1/"
   xmlns:cc="http://creativecommons.org/ns#"
   xmlns:rdf="http://www.w3.org/1999/02/22-rdf-syntax-ns#"
   xmlns:svg="http://www.w3.org/2000/svg"
   xmlns="http://www.w3.org/2000/svg"
   xmlns:sodipodi="http://sodipodi.sourceforge.net/DTD/sodipodi-0.dtd"
   xmlns:inkscape="http://www.inkscape.org/namespaces/inkscape"
   id="generated_logo_1"
   viewBox="0 0 323.14279 100"
   version="1.1"
   sodipodi:docname="logo_transparent.svg"
   width="323.14279"
   height="100">
  <metadata
     id="metadata37">
    <rdf:RDF>
      <cc:Work
         rdf:about="">
        <dc:format>image/svg+xml</dc:format>
        <dc:type
           rdf:resource="http://purl.org/dc/dcmitype/StillImage" />
      </cc:Work>
    </rdf:RDF>
  </metadata>
  <defs
     id="defs35" />
  <sodipodi:namedview
     pagecolor="#ffffff"
     bordercolor="#666666"
     borderopacity="1"
     objecttolerance="10"
     gridtolerance="10"
     guidetolerance="10"
     inkscape:pageopacity="0"
     inkscape:pageshadow="2"
     inkscape:window-width="640"
     inkscape:window-height="480"
     id="namedview33" />
  <style
     type="text/css"
     class="styleimportlogofontmain"
     id="style2">@import url(&quot;https://fonts.googleapis.com/css2?family=Barlow:wght@300;400;500;700;900&quot;);#generated_logo_1 .maintypo { font-family: Barlow; font-weight: 400; }</style>
  <style
     type="text/css"
     class="styleimportlogofontsub"
     id="style4">@import url(&quot;https://fonts.googleapis.com/css2?family=Open Sans:wght@300;400;700&quot;);#generated_logo_1 .subtypo { font-family: Open Sans; font-weight: 300; }</style>
  <style
     type="text/css"
     class="styleimportlogopos"
     id="style6" />
  <g
     id="logo-elements"
     transform="translate(50,50)"
     transform-box="stroke-box">
    <g
       id="iconcontainer"
       transform-origin="center"
       transform-box="fill-box">
      <g
         class="iconBGGrpM"
         id="g10">
        <g
           class="iconBGGrp"
           transform="matrix(0.1,0,0,0.1,-50,-50)"
           id="g8" />
      </g>
      <g
         class="iconGrpM"
         id="g19">
        <g
           class="iconGrp"
           transform="matrix(0.1,0,0,0.1,-50,-50)"
           id="g17">
          <g
             class="lg_icon"
             id="lg_icon_121"
             stroke="none"
             stroke-width="1"
             fill="none"
             fill-rule="evenodd">
            <g
               id="0121">
              <path
                 id="FRAME"
                 style="fill:none"
                 d="M 0,0 V 1000 H 1000 V 0 Z" />
              <g
                 id="Icon"
                 transform="translate(200,188)"
                 fill="#ff9900">
                <path
                   d="M 300,0 0,124.999 v 375 L 300,625 600.001,499.999 v -375 z m 262.792,137.499 -247.819,110.028 -16.223,352.472 -11.25,-350 -249.999,-112.5 262.646,100 z"
                   id="Fill-1" />
              </g>
            </g>
          </g>
        </g>
      </g>
    </g>
    <g
       id="textlines">
      <g
         id="einsg"
         transform="translate(-26.5)">
        <g
           aria-label="Espace Pièce Traceur"
           id="eins"
           style="text-rendering:geometricPrecision">
          <path
             d="m 87.034,-19.256 q 0,0.22 -0.22,0.22 h -8.096 q -0.088,0 -0.088,0.088 v 5.434 q 0,0.088 0.088,0.088 h 5.676 q 0.22,0 0.22,0.22 v 0.924 q 0,0.22 -0.22,0.22 h -5.676 q -0.088,0 -0.088,0.088 v 5.522 q 0,0.088 0.088,0.088 h 8.096 q 0.22,0 0.22,0.22 v 0.924 q 0,0.22 -0.22,0.22 h -9.526 q -0.22,0 -0.22,-0.22 v -14.96 q 0,-0.22 0.22,-0.22 h 9.526 q 0.22,0 0.22,0.22 z"
             style="font-weight:400;font-size:22px;font-family:Barlow;letter-spacing:1;fill:#fd9800"
             id="path40" />
          <path
             d="m 94.732313,-4.89 q -1.232,0 -2.2,-0.396 -0.946,-0.396 -1.474001,-1.056 -0.506,-0.66 -0.506,-1.474 V -8.08 q 0,-0.22 0.22,-0.22 h 1.056 q 0.22,0 0.22,0.22 v 0.176 q 0,0.726 0.748,1.276 0.77,0.528 1.914,0.528 1.144001,0 1.848,-0.506 0.704001,-0.528 0.704001,-1.32 0,-0.55 -0.374001,-0.902 -0.352,-0.352 -0.858,-0.55 -0.484,-0.198 -1.517999,-0.506 -1.232001,-0.352 -2.024,-0.704 -0.792,-0.352 -1.342001,-0.968 -0.527999,-0.638 -0.527999,-1.606 0,-1.408 1.099999,-2.244 1.100001,-0.836 2.904,-0.836 1.21,0 2.134001,0.396 0.946,0.396 1.452,1.1 0.506,0.682 0.506,1.54 v 0.066 q 0,0.22 -0.22,0.22 h -1.034001 q -0.219999,0 -0.219999,-0.22 v -0.066 q 0,-0.748 -0.726,-1.254 -0.704001,-0.506 -1.914001,-0.506 -1.122,0 -1.804,0.462 -0.682,0.44 -0.682,1.232 0,0.748 0.66,1.144 0.660001,0.396 2.046,0.792 1.276,0.374 2.068,0.704 0.792,0.33 1.364001,0.968 0.572,0.616 0.572,1.628 0,1.43 -1.122,2.288 -1.122,0.858 -2.97,0.858 z"
             style="font-weight:400;font-size:22px;font-family:Barlow;letter-spacing:1;fill:#fd9800"
             id="path42" />
          <path
             d="m 111.29663,-13.36 q 0.33,1.056 0.33,2.794 0,1.76 -0.286,2.728 -0.396,1.408 -1.452,2.222 -1.034,0.792 -2.61801,0.792 -0.85799,0 -1.58399,-0.33 -0.72601,-0.352 -1.21,-0.99 -0.044,-0.044 -0.088,-0.022 -0.022,0 -0.022,0.044 v 5.17 q 0,0.22 -0.22,0.22 h -1.122 q -0.22,0 -0.22,-0.22 v -14.96 q 0,-0.22 0.22,-0.22 h 1.122 q 0.22,0 0.22,0.22 v 0.924 q 0,0.044 0.022,0.066 0.044,0 0.088,-0.044 0.48399,-0.638 1.188,-0.99 0.726,-0.352 1.60599,-0.352 1.54001,0 2.57401,0.792 1.056,0.792 1.452,2.156 z m -1.738,5.566 q 0.24199,-0.484 0.35199,-1.078 0.13201,-0.616 0.13201,-1.694 0,-1.034 -0.088,-1.606 -0.088,-0.594 -0.30799,-1.056 -0.264,-0.792 -0.946,-1.254 -0.66,-0.462 -1.584,-0.462 -0.88,0 -1.47401,0.462 -0.59399,0.462 -0.87999,1.232 -0.198,0.44 -0.286,1.034 -0.088,0.594 -0.088,1.65 0,1.056 0.088,1.672 0.088,0.594 0.308,1.056 0.264,0.748 0.85799,1.21 0.616,0.44 1.45201,0.44 0.88,0 1.51799,-0.44 0.66001,-0.44 0.94601,-1.166 z"
             style="font-weight:400;font-size:22px;font-family:Barlow;letter-spacing:1;fill:#fd9800"
             id="path44" />
          <path
             d="m 119.66078,-16.308 q 1.98,0 3.058,1.012 1.078,1.012 1.078,2.684 v 7.392 q 0,0.22 -0.22,0.22 h -1.122 q -0.22,0 -0.22,-0.22 v -0.902 q 0,-0.044 -0.044,-0.066 -0.022,-0.022 -0.066,0.022 -0.55,0.66 -1.43,1.012 -0.88,0.33 -1.958,0.33 -1.562,0 -2.618,-0.792 -1.056,-0.792 -1.056,-2.42 0,-1.65 1.188,-2.596 1.21,-0.968 3.344,-0.968 h 2.552 q 0.088,0 0.088,-0.088 v -0.836 q 0,-1.122 -0.638,-1.76 -0.616,-0.66 -1.936,-0.66 -1.056,0 -1.716,0.418 -0.66,0.396 -0.814,1.122 -0.066,0.22 -0.264,0.198 l -1.188,-0.154 q -0.242,-0.044 -0.198,-0.176 0.176,-1.232 1.32,-2.002 1.144,-0.77 2.86,-0.77 z m -0.616,10.142 q 1.298,0 2.244,-0.638 0.946,-0.66 0.946,-1.76 v -1.716 q 0,-0.088 -0.088,-0.088 h -2.31 q -1.452,0 -2.332,0.594 -0.88,0.594 -0.88,1.65 0,0.968 0.66,1.474 0.682,0.484 1.76,0.484 z"
             style="font-weight:400;font-size:22px;font-family:Barlow;letter-spacing:1;fill:#fd9800"
             id="path46" />
          <path
             d="m 132.27059,-4.824 q -1.584,0 -2.728,-0.814 -1.122,-0.836 -1.54,-2.244 -0.286,-0.968 -0.286,-2.728 0,-1.584 0.286,-2.684 0.396,-1.364 1.54,-2.178 1.144,-0.836 2.728,-0.836 1.606,0 2.772,0.814 1.188,0.814 1.54,2.024 0.11,0.396 0.132,0.66 v 0.044 q 0,0.154 -0.198,0.198 l -1.1,0.154 h -0.044 q -0.154,0 -0.198,-0.198 l -0.066,-0.33 q -0.198,-0.836 -0.968,-1.408 -0.77,-0.594 -1.87,-0.594 -1.1,0 -1.848,0.594 -0.726,0.572 -0.946,1.54 -0.198,0.836 -0.198,2.222 0,1.452 0.198,2.244 0.22,0.99 0.946,1.584 0.748,0.572 1.848,0.572 1.078,0 1.848,-0.55 0.792,-0.572 0.99,-1.452 v -0.088 l 0.022,-0.088 q 0.022,-0.22 0.264,-0.176 l 1.078,0.176 q 0.22,0.044 0.198,0.242 l -0.088,0.44 q -0.33,1.276 -1.518,2.068 -1.188,0.792 -2.794,0.792 z"
             style="font-weight:400;font-size:22px;font-family:Barlow;letter-spacing:1;fill:#fd9800"
             id="path48" />
          <path
             d="m 148.94834,-12.436 q 0.088,0.616 0.088,1.54 v 0.704 q 0,0.22 -0.22,0.22 h -7.106 q -0.088,0 -0.088,0.088 0.044,1.21 0.132,1.562 0.242,0.99 1.034,1.562 0.792,0.572 2.024,0.572 0.924,0 1.628,-0.418 0.704,-0.418 1.1,-1.188 0.132,-0.198 0.308,-0.088 l 0.858,0.506 q 0.176,0.11 0.088,0.308 -0.55,1.056 -1.65,1.672 -1.1,0.594 -2.53,0.594 -1.562,-0.022 -2.618,-0.748 -1.056,-0.726 -1.518,-2.024 -0.396,-1.056 -0.396,-3.036 0,-0.924 0.022,-1.496 0.044,-0.594 0.176,-1.056 0.374,-1.43 1.496,-2.288 1.144,-0.858 2.75,-0.858 2.002,0 3.08,1.012 1.078,1.012 1.342,2.86 z m -4.422,-2.508 q -1.078,0 -1.804,0.572 -0.704,0.55 -0.924,1.496 -0.132,0.462 -0.176,1.496 0,0.088 0.088,0.088 h 5.698 q 0.088,0 0.088,-0.088 -0.044,-0.99 -0.132,-1.408 -0.242,-0.99 -0.99,-1.562 -0.726,-0.594 -1.848,-0.594 z"
             style="font-weight:400;font-size:22px;font-family:Barlow;letter-spacing:1;fill:#fd9800"
             id="path50" />
          <path
             d="m 164.68562,-20.422 q 1.936,0 3.102,1.188 1.188,1.188 1.188,3.124 0,1.914 -1.21,3.08 -1.188,1.166 -3.146,1.166 h -4.29 q -0.088,0 -0.088,0.088 v 6.556 q 0,0.22 -0.22,0.22 h -1.122 q -0.22,0 -0.22,-0.22 v -14.982 q 0,-0.22 0.22,-0.22 z m -0.176,7.26 q 1.298,0 2.112,-0.792 0.814,-0.814 0.814,-2.134 0,-1.342 -0.814,-2.156 -0.814,-0.814 -2.112,-0.814 h -4.18 q -0.088,0 -0.088,0.088 v 5.72 q 0,0.088 0.088,0.088 z"
             style="font-weight:400;font-size:22px;font-family:Barlow;letter-spacing:1;fill:#fd9800"
             id="path52" />
          <path
             d="m 173.60116,-18.156 q -0.528,0 -0.88,-0.352 -0.352,-0.352 -0.352,-0.88 0,-0.55 0.352,-0.88 0.352,-0.352 0.88,-0.352 0.528,0 0.88,0.352 0.352,0.33 0.352,0.88 0,0.528 -0.352,0.88 -0.352,0.352 -0.88,0.352 z m -0.616,13.134 q -0.22,0 -0.22,-0.22 v -10.692 q 0,-0.22 0.22,-0.22 h 1.122 q 0.22,0 0.22,0.22 v 10.692 q 0,0.22 -0.22,0.22 z"
             style="font-weight:400;font-size:22px;font-family:Barlow;letter-spacing:1;fill:#fd9800"
             id="path54" />
          <path
             d="m 187.71006,-12.436 q 0.088,0.616 0.088,1.54 v 0.704 q 0,0.22 -0.22,0.22 h -7.106 q -0.088,0 -0.088,0.088 0.044,1.21 0.132,1.562 0.242,0.99 1.034,1.562 0.792,0.572 2.024,0.572 0.924,0 1.628,-0.418 0.704,-0.418 1.1,-1.188 0.132,-0.198 0.308,-0.088 l 0.858,0.506 q 0.176,0.11 0.088,0.308 -0.55,1.056 -1.65,1.672 -1.1,0.594 -2.53,0.594 -1.562,-0.022 -2.618,-0.748 -1.056,-0.726 -1.518,-2.024 -0.396,-1.056 -0.396,-3.036 0,-0.924 0.022,-1.496 0.044,-0.594 0.176,-1.056 0.374,-1.43 1.496,-2.288 1.144,-0.858 2.75,-0.858 2.002,0 3.08,1.012 1.078,1.012 1.342,2.86 z m -4.422,-2.508 q -1.078,0 -1.804,0.572 -0.704,0.55 -0.924,1.496 -0.132,0.462 -0.176,1.496 0,0.088 0.088,0.088 h 5.698 q 0.088,0 0.088,-0.088 -0.044,-0.99 -0.132,-1.408 -0.242,-0.99 -0.99,-1.562 -0.726,-0.594 -1.848,-0.594 z m 0.572,-2.904 q 0.044,0.088 0.044,0.132 0,0.132 -0.198,0.132 h -0.792 q -0.154,0 -0.264,-0.154 l -1.496,-2.398 q -0.044,-0.088 -0.044,-0.132 0,-0.132 0.176,-0.132 h 0.99 q 0.198,0 0.264,0.154 z"
             style="font-weight:400;font-size:22px;font-family:Barlow;letter-spacing:1;fill:#fd9800"
             id="path56" />
          <path
             d="m 196.10653,-4.824 q -1.584,0 -2.728,-0.814 -1.122,-0.836 -1.54,-2.244 -0.286,-0.968 -0.286,-2.728 0,-1.584 0.286,-2.684 0.396,-1.364 1.54,-2.178 1.144,-0.836 2.728,-0.836 1.606,0 2.772,0.814 1.188,0.814 1.54,2.024 0.11,0.396 0.132,0.66 v 0.044 q 0,0.154 -0.198,0.198 l -1.1,0.154 h -0.044 q -0.154,0 -0.198,-0.198 l -0.066,-0.33 q -0.198,-0.836 -0.968,-1.408 -0.77,-0.594 -1.87,-0.594 -1.1,0 -1.848,0.594 -0.726,0.572 -0.946,1.54 -0.198,0.836 -0.198,2.222 0,1.452 0.198,2.244 0.22,0.99 0.946,1.584 0.748,0.572 1.848,0.572 1.078,0 1.848,-0.55 0.792,-0.572 0.99,-1.452 v -0.088 l 0.022,-0.088 q 0.022,-0.22 0.264,-0.176 l 1.078,0.176 q 0.22,0.044 0.198,0.242 l -0.088,0.44 q -0.33,1.276 -1.518,2.068 -1.188,0.792 -2.794,0.792 z"
             style="font-weight:400;font-size:22px;font-family:Barlow;letter-spacing:1;fill:#fd9800"
             id="path58" />
          <path
             d="m 212.78428,-12.436 q 0.088,0.616 0.088,1.54 v 0.704 q 0,0.22 -0.22,0.22 h -7.106 q -0.088,0 -0.088,0.088 0.044,1.21 0.132,1.562 0.242,0.99 1.034,1.562 0.792,0.572 2.024,0.572 0.924,0 1.628,-0.418 0.704,-0.418 1.1,-1.188 0.132,-0.198 0.308,-0.088 l 0.858,0.506 q 0.176,0.11 0.088,0.308 -0.55,1.056 -1.65,1.672 -1.1,0.594 -2.53,0.594 -1.562,-0.022 -2.618,-0.748 -1.056,-0.726 -1.518,-2.024 -0.396,-1.056 -0.396,-3.036 0,-0.924 0.022,-1.496 0.044,-0.594 0.176,-1.056 0.374,-1.43 1.496,-2.288 1.144,-0.858 2.75,-0.858 2.002,0 3.08,1.012 1.078,1.012 1.342,2.86 z m -4.422,-2.508 q -1.078,0 -1.804,0.572 -0.704,0.55 -0.924,1.496 -0.132,0.462 -0.176,1.496 0,0.088 0.088,0.088 h 5.698 q 0.088,0 0.088,-0.088 -0.044,-0.99 -0.132,-1.408 -0.242,-0.99 -0.99,-1.562 -0.726,-0.594 -1.848,-0.594 z"
             style="font-weight:400;font-size:22px;font-family:Barlow;letter-spacing:1;fill:#fd9800"
             id="path60" />
          <path
             d="m 231.95356,-20.4 q 0.22,0 0.22,0.22 v 0.946 q 0,0.22 -0.22,0.22 h -4.312 q -0.088,0 -0.088,0.088 V -5.22 q 0,0.22 -0.22,0.22 h -1.122 q -0.22,0 -0.22,-0.22 v -13.706 q 0,-0.088 -0.088,-0.088 h -4.136 q -0.22,0 -0.22,-0.22 v -0.946 q 0,-0.22 0.22,-0.22 z"
             style="font-weight:400;font-size:22px;font-family:Barlow;letter-spacing:1;fill:#fd9800"
             id="path62" />
          <path
             d="m 239.19331,-16.242 q 0.726,0 1.254,0.286 0.176,0.088 0.132,0.286 l -0.242,1.078 q -0.066,0.22 -0.286,0.132 -0.374,-0.154 -0.858,-0.154 l -0.286,0.022 q -1.144,0.044 -1.892,0.858 -0.748,0.792 -0.748,2.024 v 6.49 q 0,0.22 -0.22,0.22 h -1.122 q -0.22,0 -0.22,-0.22 v -10.692 q 0,-0.22 0.22,-0.22 h 1.122 q 0.22,0 0.22,0.22 v 1.342 q 0,0.066 0.022,0.088 0.044,0 0.066,-0.044 0.462,-0.814 1.166,-1.254 0.726,-0.462 1.672,-0.462 z"
             style="font-weight:400;font-size:22px;font-family:Barlow;letter-spacing:1;fill:#fd9800"
             id="path64" />
          <path
             d="m 247.50453,-16.308 q 1.98,0 3.058,1.012 1.078,1.012 1.078,2.684 v 7.392 q 0,0.22 -0.22,0.22 h -1.122 q -0.22,0 -0.22,-0.22 v -0.902 q 0,-0.044 -0.044,-0.066 -0.022,-0.022 -0.066,0.022 -0.55,0.66 -1.43,1.012 -0.88,0.33 -1.958,0.33 -1.562,0 -2.618,-0.792 -1.056,-0.792 -1.056,-2.42 0,-1.65 1.188,-2.596 1.21,-0.968 3.344,-0.968 h 2.552 q 0.088,0 0.088,-0.088 v -0.836 q 0,-1.122 -0.638,-1.76 -0.616,-0.66 -1.936,-0.66 -1.056,0 -1.716,0.418 -0.66,0.396 -0.814,1.122 -0.066,0.22 -0.264,0.198 l -1.188,-0.154 q -0.242,-0.044 -0.198,-0.176 0.176,-1.232 1.32,-2.002 1.144,-0.77 2.86,-0.77 z m -0.616,10.142 q 1.298,0 2.244,-0.638 0.946,-0.66 0.946,-1.76 v -1.716 q 0,-0.088 -0.088,-0.088 h -2.31 q -1.452,0 -2.332,0.594 -0.88,0.594 -0.88,1.65 0,0.968 0.66,1.474 0.682,0.484 1.76,0.484 z"
             style="font-weight:400;font-size:22px;font-family:Barlow;letter-spacing:1;fill:#fd9800"
             id="path66" />
          <path
             d="m 260.11434,-4.824 q -1.584,0 -2.728,-0.814 -1.122,-0.836 -1.54,-2.244 -0.286,-0.968 -0.286,-2.728 0,-1.584 0.286,-2.684 0.396,-1.364 1.54,-2.178 1.144,-0.836 2.728,-0.836 1.606,0 2.772,0.814 1.188,0.814 1.54,2.024 0.11,0.396 0.132,0.66 v 0.044 q 0,0.154 -0.198,0.198 l -1.1,0.154 h -0.044 q -0.154,0 -0.198,-0.198 l -0.066,-0.33 q -0.198,-0.836 -0.968,-1.408 -0.77,-0.594 -1.87,-0.594 -1.1,0 -1.848,0.594 -0.726,0.572 -0.946,1.54 -0.198,0.836 -0.198,2.222 0,1.452 0.198,2.244 0.22,0.99 0.946,1.584 0.748,0.572 1.848,0.572 1.078,0 1.848,-0.55 0.792,-0.572 0.99,-1.452 v -0.088 l 0.022,-0.088 q 0.022,-0.22 0.264,-0.176 l 1.078,0.176 q 0.22,0.044 0.198,0.242 l -0.088,0.44 q -0.33,1.276 -1.518,2.068 -1.188,0.792 -2.794,0.792 z"
             style="font-weight:400;font-size:22px;font-family:Barlow;letter-spacing:1;fill:#fd9800"
             id="path68" />
          <path
             d="m 276.79209,-12.436 q 0.088,0.616 0.088,1.54 v 0.704 q 0,0.22 -0.22,0.22 h -7.106 q -0.088,0 -0.088,0.088 0.044,1.21 0.132,1.562 0.242,0.99 1.034,1.562 0.792,0.572 2.024,0.572 0.924,0 1.628,-0.418 0.704,-0.418 1.1,-1.188 0.132,-0.198 0.308,-0.088 l 0.858,0.506 q 0.176,0.11 0.088,0.308 -0.55,1.056 -1.65,1.672 -1.1,0.594 -2.53,0.594 -1.562,-0.022 -2.618,-0.748 -1.056,-0.726 -1.518,-2.024 -0.396,-1.056 -0.396,-3.036 0,-0.924 0.022,-1.496 0.044,-0.594 0.176,-1.056 0.374,-1.43 1.496,-2.288 1.144,-0.858 2.75,-0.858 2.002,0 3.08,1.012 1.078,1.012 1.342,2.86 z m -4.422,-2.508 q -1.078,0 -1.804,0.572 -0.704,0.55 -0.924,1.496 -0.132,0.462 -0.176,1.496 0,0.088 0.088,0.088 h 5.698 q 0.088,0 0.088,-0.088 -0.044,-0.99 -0.132,-1.408 -0.242,-0.99 -0.99,-1.562 -0.726,-0.594 -1.848,-0.594 z"
             style="font-weight:400;font-size:22px;font-family:Barlow;letter-spacing:1;fill:#fd9800"
             id="path70" />
          <path
             d="m 287.71856,-15.912 q 0,-0.22 0.22,-0.22 h 1.122 q 0.22,0 0.22,0.22 V -5.22 q 0,0.22 -0.22,0.22 h -1.122 q -0.22,0 -0.22,-0.22 v -0.946 q 0,-0.044 -0.044,-0.066 -0.044,-0.022 -0.066,0.022 -0.924,1.364 -2.926,1.364 -1.056,0 -1.958,-0.418 -0.88,-0.44 -1.408,-1.254 -0.506,-0.814 -0.506,-1.958 v -7.436 q 0,-0.22 0.22,-0.22 h 1.122 q 0.22,0 0.22,0.22 v 6.974 q 0,1.254 0.704,2.002 0.704,0.726 1.914,0.726 1.254,0 1.98,-0.748 0.748,-0.748 0.748,-1.98 z"
             style="font-weight:400;font-size:22px;font-family:Barlow;letter-spacing:1;fill:#fd9800"
             id="path72" />
          <path
             d="m 298.248,-16.242 q 0.726,0 1.254,0.286 0.176,0.088 0.132,0.286 l -0.242,1.078 q -0.066,0.22 -0.286,0.132 -0.374,-0.154 -0.858,-0.154 l -0.286,0.022 q -1.144,0.044 -1.892,0.858 -0.748,0.792 -0.748,2.024 v 6.49 q 0,0.22 -0.22,0.22 h -1.122 q -0.22,0 -0.22,-0.22 v -10.692 q 0,-0.22 0.22,-0.22 h 1.122 q 0.22,0 0.22,0.22 v 1.342 q 0,0.066 0.022,0.088 0.044,0 0.066,-0.044 0.462,-0.814 1.166,-1.254 0.726,-0.462 1.672,-0.462 z"
             style="font-weight:400;font-size:22px;font-family:Barlow;letter-spacing:1;fill:#fd9800"
             id="path74" />
        </g>
      </g>
      <g
         id="zweig"
         transform="translate(16,5)">
        <g
           aria-label="By Inforiel"
           id="zwei"
           style="dominant-baseline:text-before-edge;text-rendering:geometricPrecision">
          <path
             d="m 76.819336,0.84927368 h 3.524414 q 2.381836,0 3.498047,0.80859372 1.116211,0.8085938 1.116211,2.4433594 0,1.1162109 -0.685547,1.8632813 -0.676758,0.7382812 -1.986328,0.9492187 v 0.052734 q 1.538086,0.2285156 2.258789,0.9755859 0.729492,0.7382813 0.729492,2.0654303 0,1.77539 -1.177734,2.733398 -1.177735,0.958008 -3.339844,0.958008 h -3.9375 z M 77.71582,6.5709534 h 2.830078 q 1.810547,0 2.62793,-0.5976563 Q 84,5.3668518 84,4.0836487 84,2.8004456 83.068359,2.2203674 82.145508,1.6402893 80.308594,1.6402893 H 77.71582 Z m 0,0.7910156 v 5.545898 h 3.023438 q 3.568359,0 3.568359,-2.90039 0,-2.645508 -3.761719,-2.645508 z"
             style="font-weight:300;font-size:18px;font-family:'Open Sans';letter-spacing:1;dominant-baseline:text-before-edge;fill:#fba524"
             id="path77" />
          <path
             d="m 87.285156,4.1451721 h 0.896485 l 2.021484,5.3613281 q 0.922852,2.4697268 1.168945,3.3310548 h 0.05274 q 0.36914,-1.133789 1.204101,-3.3837891 L 94.650396,4.1451721 H 95.54688 L 91.266602,15.245758 q -0.518555,1.353516 -0.870118,1.828125 -0.351562,0.474609 -0.826172,0.711914 -0.46582,0.237305 -1.133789,0.237305 -0.500976,0 -1.116211,-0.184571 v -0.755859 q 0.509766,0.140625 1.098633,0.140625 0.448242,0 0.791016,-0.210937 0.342773,-0.210938 0.615234,-0.65918 0.28125,-0.439453 0.641602,-1.40625 0.36914,-0.958008 0.474609,-1.248047 z"
             style="font-weight:300;font-size:18px;font-family:'Open Sans';letter-spacing:1;dominant-baseline:text-before-edge;fill:#fba524"
             id="path79" />
          <path
             d="M 104.04199,13.698883 V 0.84927368 h 0.89649 V 13.698883 Z"
             style="font-weight:300;font-size:18px;font-family:'Open Sans';letter-spacing:1;dominant-baseline:text-before-edge;fill:#fba524"
             id="path81" />
          <path
             d="M 116.01953,13.698883 V 7.502594 q 0,-1.4414063 -0.60644,-2.0917969 -0.60645,-0.6591797 -1.88086,-0.6591797 -1.71387,0 -2.51368,0.8701172 -0.79101,0.8613281 -0.79101,2.803711 v 5.2734374 h -0.87012 V 4.1451721 h 0.73828 l 0.167,1.3095703 h 0.0527 q 0.93164,-1.4941406 3.31348,-1.4941406 3.25195,0 3.25195,3.4892578 v 6.2490234 z"
             style="font-weight:300;font-size:18px;font-family:'Open Sans';letter-spacing:1;dominant-baseline:text-before-edge;fill:#fba524"
             id="path83" />
          <path
             d="m 124.52539,4.9010315 h -2.25 v 8.7978515 h -0.87012 V 4.9010315 h -1.77539 V 4.3912659 l 1.77539,-0.3251953 V 3.3277893 q 0,-1.7578125 0.64161,-2.57519531 0.65039,-0.82617187 2.11816,-0.82617187 0.79101,0 1.58203,0.23730469 l -0.20215,0.75585937 q -0.70312,-0.21972656 -1.39746,-0.21972656 -1.01953,0 -1.45019,0.60644528 -0.42188,0.5976563 -0.42188,1.9511719 v 0.8876953 h 2.25 z"
             style="font-weight:300;font-size:18px;font-family:'Open Sans';letter-spacing:1;dominant-baseline:text-before-edge;fill:#fba524"
             id="path85" />
          <path
             d="m 135.29004,8.908844 q 0,2.337891 -1.13379,3.65625 -1.13379,1.30957 -3.12891,1.30957 -1.25683,0 -2.21484,-0.606445 -0.95801,-0.606445 -1.46777,-1.740234 -0.50977,-1.133789 -0.50977,-2.619141 0,-2.3378906 1.13379,-3.6386719 1.13379,-1.3095703 3.11133,-1.3095703 1.96875,0 3.08496,1.3271484 1.125,1.3183594 1.125,3.6210938 z m -7.54102,0 q 0,1.96875 0.86133,3.076172 0.87012,1.098633 2.45215,1.098633 1.58203,0 2.44336,-1.098633 0.87012,-1.107422 0.87012,-3.076172 0,-1.9775391 -0.87891,-3.0673828 -0.87012,-1.0898438 -2.45215,-1.0898438 -1.58203,0 -2.44336,1.0898438 -0.85254,1.0810547 -0.85254,3.0673828 z"
             style="font-weight:300;font-size:18px;font-family:'Open Sans';letter-spacing:1;dominant-baseline:text-before-edge;fill:#fba524"
             id="path87" />
          <path
             d="m 142.69727,3.9606018 q 0.60644,0 1.30078,0.1230469 l -0.167,0.8349609 q -0.59765,-0.149414 -1.23925,-0.149414 -1.22168,0 -2.00391,1.0371093 -0.78223,1.0371094 -0.78223,2.6191407 v 5.2734374 h -0.87011 V 4.1451721 h 0.73828 l 0.0879,1.7226563 h 0.0615 q 0.58887,-1.0546875 1.25684,-1.4765625 0.66797,-0.4306641 1.61719,-0.4306641 z"
             style="font-weight:300;font-size:18px;font-family:'Open Sans';letter-spacing:1;dominant-baseline:text-before-edge;fill:#fba524"
             id="path89" />
          <path
             d="m 147.80176,13.698883 h -0.87012 V 4.1451721 h 0.87012 z M 146.80859,1.4908752 q 0,-0.84374996 0.55371,-0.84374996 0.27247,0 0.42188,0.21972657 0.1582,0.21972659 0.1582,0.62402339 0,0.3955079 -0.1582,0.6240235 -0.14941,0.2285156 -0.42188,0.2285156 -0.55371,0 -0.55371,-0.8525391 z"
             style="font-weight:300;font-size:18px;font-family:'Open Sans';letter-spacing:1;dominant-baseline:text-before-edge;fill:#fba524"
             id="path91" />
          <path
             d="m 155.86816,13.874664 q -2.083,0 -3.25195,-1.283203 -1.16016,-1.283203 -1.16016,-3.5947264 0,-2.2851562 1.125,-3.65625 1.125,-1.3798828 3.03223,-1.3798828 1.6875,0 2.66309,1.1777344 0.97558,1.1777344 0.97558,3.1992187 v 0.703125 h -6.88183 q 0.0176,1.9687501 0.91406,3.0058591 0.90527,1.03711 2.58398,1.03711 0.81739,0 1.43262,-0.114258 0.62402,-0.114258 1.57324,-0.492188 v 0.791016 q -0.80859,0.351562 -1.49414,0.474609 -0.68554,0.131836 -1.51172,0.131836 z m -0.25488,-9.1406247 q -1.37988,0 -2.21484,0.9140625 -0.83496,0.9052734 -0.97559,2.6191406 h 5.90625 q 0,-1.6611328 -0.7207,-2.5927734 -0.7207,-0.9404297 -1.99512,-0.9404297 z"
             style="font-weight:300;font-size:18px;font-family:'Open Sans';letter-spacing:1;dominant-baseline:text-before-edge;fill:#fba524"
             id="path93" />
          <path
             d="m 163.75879,13.698883 h -0.87012 V 0.02310181 h 0.87012 z"
             style="font-weight:300;font-size:18px;font-family:'Open Sans';letter-spacing:1;dominant-baseline:text-before-edge;fill:#fba524"
             id="path95" />
        </g>
      </g>
    </g>
  </g>
</svg>
